<?xml version="1.0" encoding="UTF-8"?>
<svg id="Layer_1" xmlns="http://www.w3.org/2000/svg" version="1.1" viewBox="0 0 400 100">
  <!-- Generator: Adobe Illustrator 29.1.0, SVG Export Plug-In . SVG Version: 2.1.0 Build 142)  -->
  <defs>
    <style>
      .st0 {
        font-family: AWConquerorStdDidot-Bold, 'AWConqueror Std Didot';
        font-size: 39.67px;
        font-weight: 700;
      }
    </style>
  </defs>
  <text class="st0" transform="translate(-.27 61.65) scale(1.03 1)"><tspan x="0" y="0">H</tspan></text>
  <text class="st0" transform="translate(59.87 61.65) scale(1.03 1)"><tspan x="0" y="0">L</tspan></text>
  <text class="st0" transform="translate(109.1 61.65) scale(1.03 1)"><tspan x="0" y="0">B</tspan></text>
  <text class="st0" transform="translate(136.15 61.65) scale(1.03 1)"><tspan x="0" y="0">O</tspan></text>
  <text class="st0" transform="translate(166.53 62.26) scale(1.03 1)"><tspan x="0" y="0">U</tspan></text>
  <text class="st0" transform="translate(196.61 62.87) scale(1.03 1)"><tspan x="0" y="0">L</tspan></text>
  <text class="st0" transform="translate(220.61 62.26) scale(1.03 1)"><tspan x="0" y="0">A</tspan></text>
  <text class="st0" transform="translate(249.78 62.87) scale(1.03 1)"><tspan x="0" y="0">N</tspan></text>
  <text class="st0" transform="translate(278.41 63.22) scale(1.03 1)"><tspan x="0" y="0">G</tspan></text>
  <text class="st0" transform="translate(304.95 63.22) scale(1.03 1)"><tspan x="0" y="0">E</tspan></text>
  <text class="st0" transform="translate(328.72 63.63) scale(1.03 1)"><tspan x="0" y="0">R</tspan></text>
  <text class="st0" transform="translate(359.47 63.63) scale(1.03 1)"><tspan x="0" y="0">I</tspan></text>
  <text class="st0" transform="translate(372.99 63.63) scale(1.03 1)"><tspan x="0" y="0">E</tspan></text>
  <path d="M53.98,54.43h.37v-2.35h-1.61c-1.22-2.43-2.16-4.68-2.87-6.74h1.29v-1.42h-1.74c-2.11-6.64-2.69-20.02-2.69-20.02.5-.27.83-.76.83-1.3,0-.74-.62-1.36-1.45-1.51v-2.52h-.76v2.52c-.83.16-1.45.78-1.45,1.51,0,.54.32,1.01.83,1.3,0,0-.57,13.36-2.69,20.02h-1.74v1.42h1.29c-.71,2.06-1.65,4.33-2.87,6.74h-1.61v2.35h.37c-1.68,3.01-3.76,6.23-6.38,9.58h6.63s0-7.5,8.01-7.5,8.01,7.5,8.01,7.5h6.63c-2.64-3.34-4.73-6.56-6.4-9.58ZM43.91,46.82h3.67c.3,1.46,1.03,4.18,1.33,5.26h-6.36c.3-1.09,1.06-3.81,1.35-5.26Z"/>
</svg>